<?xml version="1.0" standalone="no"?>
<!DOCTYPE svg PUBLIC "-//W3C//DTD SVG 20010904//EN"
 "http://www.w3.org/TR/2001/REC-SVG-20010904/DTD/svg10.dtd">
<svg version="1.0" xmlns="http://www.w3.org/2000/svg"
 width="300.000000pt" height="300.000000pt" viewBox="0 0 300.000000 300.000000"
 preserveAspectRatio="xMidYMid meet">
<metadata>
Created by potrace 1.11, written by Peter Selinger 2001-2013
</metadata>
<g transform="translate(0.000000,300.000000) scale(0.100000,-0.100000)"
fill="#000000" stroke="none">
<path d="M1398 2955 c-2 -2 -28 -6 -58 -9 -54 -6 -79 -10 -130 -21 -14 -3 -41
-8 -60 -11 -106 -17 -390 -142 -518 -228 -159 -108 -316 -296 -420 -502 -39
-78 -107 -259 -117 -312 -2 -14 -9 -48 -15 -76 -17 -83 -18 -92 -26 -163 -13
-121 -6 -395 11 -423 3 -4 7 -25 11 -46 12 -74 56 -200 110 -312 46 -94 67
-126 122 -180 72 -72 152 -118 257 -148 62 -17 196 -24 275 -12 144 21 252
103 288 220 19 61 20 91 18 537 -1 318 1 477 9 486 9 12 184 105 197 105 3 0
6 -217 6 -482 0 -266 1 -491 1 -500 1 -16 15 -18 151 -18 l150 0 0 514 0 514
88 -45 c48 -25 93 -51 100 -58 11 -10 14 -102 16 -459 2 -246 6 -449 9 -453 5
-4 158 -7 275 -4 l22 1 0 386 0 386 136 -71 c74 -39 138 -71 142 -71 11 0 8
328 -3 338 -6 5 -100 56 -210 113 -110 56 -267 138 -350 181 -82 42 -201 103
-263 135 l-112 58 -113 -58 c-61 -31 -179 -92 -262 -135 -82 -43 -240 -125
-350 -181 -110 -57 -205 -107 -211 -112 -13 -10 -16 -339 -4 -339 4 0 64 29
132 65 69 36 130 65 135 65 10 0 9 -599 -1 -670 -3 -25 -13 -67 -22 -93 -13
-39 -23 -52 -50 -63 -205 -86 -396 233 -398 666 -2 314 42 462 208 710 110
165 232 261 446 353 167 71 323 101 525 100 167 -1 333 -36 446 -94 62 -31
242 -143 274 -170 124 -105 248 -292 294 -444 7 -22 16 -49 21 -60 11 -27 28
-92 35 -135 3 -19 8 -42 10 -50 7 -27 18 -154 18 -210 -2 -251 -68 -456 -209
-644 -172 -228 -384 -378 -614 -434 -132 -33 -145 -34 -310 -37 -172 -4 -269
10 -380 52 -73 28 -102 29 -154 8 -20 -8 -36 -13 -36 -10 0 2 -11 0 -24 -5
-39 -15 -134 -24 -243 -24 -57 0 -103 -2 -103 -5 0 -3 29 -27 63 -52 208 -154
444 -250 682 -276 84 -10 287 -9 370 0 320 37 595 171 834 405 201 197 315
382 386 627 72 251 76 496 11 805 -21 100 -100 285 -164 384 -234 363 -623
620 -1032 681 -44 7 -316 15 -322 10z"/>
</g>
</svg>
